<svg
    version="1.0"
    xmlns="http://www.w3.org/2000/svg"
    width="700.000000pt"
    height="233.000000pt"
    viewBox="0 0 700.000000 233.000000"
    preserveAspectRatio="xMidYMid meet">

    <metadata>
        Created by potrace 1.12, written by Peter Selinger 2001-2015
    </metadata>

    <g
    transform="translate(0.000000,233.000000) scale(0.100000,-0.100000)"
    fill="#000000"
    stroke="none"
    >

        <path d="M0 1165 l0 -1165 3500 0 3500 0 0 1165 0 1165 -3500 0 -3500 0 0 -1165z m1240 1065 c0 -5 6 -10 13 -10 6 0 25 -10 40 -23 29 -22 29 -23 29 -140 1 -65 5 -120 10 -123 4 -3 56 18 115 46 l106 51 46 -29 46 -28 3 -122 c2 -100 5 -122 18 -122 8 0 57 20 110 45 52 25 99 45 104 45 6 0 28 -12 50 -26 l40 -27 0 -574 0 -574 -122 -58 c-68 -32 -204 -98 -303 -146 -179 -87 -385 -186 -522 -251 -39 -19 -76 -34 -82 -34 -6 0 -29 11 -51 25 l-40 25 0 125 c0 105 -2 125 -15 125 -9 0 -61 -23 -117 -51 -111 -55 -115 -56 -172 -3 -25 24 -26 28 -26 144 0 66 -2 120 -4 120 -3 0 -52 -23 -109 -50 -58 -28 -110 -50 -116 -50 -6 0 -29 12 -51 26 l-40 27 0 573 0 574 183 89 c100 49 232 112 292 141 331 158 522 251 535 259 20 13 30 13 30 1z m1260 -1009 l5 -124 120 126 120 127 67 0 c87 0 88 -11 10 -93 -103 -110 -147 -158 -150 -168 -2 -4 27 -47 65 -95 121 -155 162 -209 163 -216 0 -5 -35 -8 -78 -8 l-79 0 -65 83 c-37 45 -76 92 -88 105 l-22 24 -34 -33 c-33 -31 -34 -36 -34 -106 l0 -73 -70 0 -70 0 0 283 c0 156 3 287 7 291 4 4 34 6 68 4 l60 -3 5 -124z m974 123 c12 -4 16 -20 16 -55 l0 -48 -147 -3 -148 -3 0 -55 0 -55 122 -3 c138 -3 150 -10 138 -76 -6 -29 -11 -34 -43 -40 -21 -3 -79 -6 -130 -6 l-93 0 3 -57 3 -58 150 -5 150 -5 0 -50 0 -50 -219 -3 c-157 -2 -222 1 -227 9 -9 15 -5 542 5 557 8 13 389 18 420 6z m274 -6 c5 -7 31 -62 56 -123 73 -173 111 -255 116 -255 5 1 16 25 78 170 11 25 34 79 52 120 18 41 37 81 42 88 6 7 34 12 69 12 53 0 59 -2 59 -21 0 -12 -23 -73 -51 -138 -68 -153 -71 -162 -114 -261 -20 -47 -44 -102 -53 -123 l-16 -38 -74 3 -73 3 -26 60 c-14 33 -38 88 -54 123 -16 35 -29 67 -29 72 0 4 -7 21 -15 37 -36 69 -112 259 -108 271 3 8 27 12 68 12 38 0 67 -5 73 -12z m919 -18 c7 -14 22 -47 34 -75 19 -46 44 -100 90 -200 66 -143 116 -265 111 -269 -3 -3 -36 -6 -73 -6 l-67 0 -23 55 -23 55 -131 0 -132 0 -24 -55 -24 -55 -67 0 c-40 0 -68 4 -68 10 0 12 37 103 84 205 68 147 146 325 146 333 0 23 29 33 90 30 57 -3 66 -6 77 -28z m768 1 c60 -33 102 -85 114 -143 17 -77 -12 -156 -74 -203 l-35 -27 55 -79 c30 -44 55 -84 55 -90 0 -6 -27 -9 -72 -7 l-72 3 -51 73 -50 72 -55 -2 -55 -3 -3 -73 -3 -73 -72 3 -72 3 1 272 c1 150 5 280 8 289 6 14 26 16 174 12 149 -4 171 -7 207 -27z m734 15 c7 -8 11 -32 9 -53 l-3 -38 -145 -5 -145 -5 -3 -57 -3 -57 128 -3 128 -3 3 -51 c3 -50 2 -51 -29 -58 -17 -3 -76 -6 -131 -6 l-99 0 3 -57 3 -58 145 -3 c100 -2 147 -6 152 -15 4 -7 8 -31 8 -55 l0 -42 -227 2 -228 3 -3 265 c-1 146 0 275 3 288 5 22 6 22 214 22 169 0 211 -3 220 -14z m339 -216 c2 -164 6 -226 15 -232 6 -4 69 -8 139 -8 126 0 128 0 134 -24 3 -13 4 -37 2 -52 l-3 -29 -212 -3 -213 -2 0 283 c0 156 3 287 7 291 4 4 34 6 68 4 l60 -3 3 -225z"></path>
        <path d="M1135 2077 c-38 -18 -131 -63 -205 -99 -74 -36 -238 -116 -365 -177 -126 -61 -237 -115 -245 -120 -13 -7 -15 -76 -18 -506 -1 -275 1 -502 5 -506 5 -4 54 15 111 42 l102 49 0 377 c0 208 4 383 8 389 7 12 101 61 272 142 58 27 176 84 263 126 l157 76 0 120 c0 66 -3 120 -7 120 -5 0 -39 -15 -78 -33z"></path>
        <path d="M1420 1851 l-95 -47 -3 -114 c-1 -62 1 -117 5 -121 4 -4 55 16 113 45 74 36 105 57 104 69 0 9 -1 62 -2 117 -2 73 -5 100 -14 99 -7 0 -56 -22 -108 -48z"></path>
        <path d="M1010 1653 c-96 -47 -221 -107 -277 -134 l-103 -49 0 -325 c0 -179 2 -325 5 -325 2 0 52 23 110 50 l105 51 0 203 0 204 148 71 c81 39 163 80 182 91 l35 19 3 115 c2 106 1 116 -15 115 -10 0 -97 -39 -193 -86z"></path>
        <path d="M1850 1693 c-8 -3 -57 -26 -107 -50 l-93 -43 0 -386 0 -385 -187 -90 c-104 -50 -251 -122 -329 -160 -77 -38 -146 -69 -152 -69 -6 0 -16 -9 -22 -19 -12 -24 -13 -228 -1 -236 5 -3 49 15 98 40 48 24 162 80 253 124 91 43 254 122 363 175 l197 95 0 506 c0 278 -1 505 -2 504 -2 0 -10 -3 -18 -6z"></path>
        <path d="M1418 1488 l-98 -48 0 -199 c0 -172 -2 -200 -16 -212 -10 -8 -83 -46 -163 -84 -80 -39 -155 -76 -165 -82 -17 -9 -20 -26 -24 -122 -4 -91 -2 -112 10 -116 8 -3 125 47 259 113 134 65 261 127 282 136 l37 18 0 324 c0 253 -3 324 -12 323 -7 -1 -57 -24 -110 -51z"></path>
        <path d="M1090 1329 c-63 -32 -119 -60 -125 -62 -10 -4 -12 -273 -2 -283 3 -3 62 22 131 55 l126 60 0 145 c0 81 -3 145 -7 144 -5 0 -60 -27 -123 -59z"></path>
        <path d="M733 748 l-103 -50 0 -124 0 -125 38 20 c20 11 69 35 107 54 l70 33 3 114 c1 62 -1 117 -5 121 -4 4 -54 -15 -110 -43z"></path>
        <path d="M4576 1171 c-10 -15 -66 -155 -66 -163 0 -5 34 -8 75 -8 41 0 75 2 75 4 0 13 -63 167 -70 171 -5 3 -11 1 -14 -4z"></path>
        <path d="M5198 1224 c-5 -4 -8 -47 -8 -96 l0 -88 73 0 c86 0 131 22 140 66 8 44 -3 84 -30 101 -26 17 -163 31 -175 17z"></path>
    </g>
</svg>